<?xml version="1.0" encoding="UTF-8" standalone="no"?>
<!DOCTYPE svg PUBLIC "-//W3C//DTD SVG 1.1//EN" "http://www.w3.org/Graphics/SVG/1.1/DTD/svg11.dtd">
<!--Generator: Xara Xtreme (www.xara.com), SVG filter version: 1.0.0.13-->
<svg stroke-width="0.501" stroke-linejoin="bevel" fill-rule="evenodd" xmlns:xlink="http://www.w3.org/1999/xlink" xmlns="http://www.w3.org/2000/svg" version="1.1" overflow="visible" width="201.6pt" height="108pt" viewBox="0 0 201.6 108">
 <defs>
  <marker id="DefaultArrow2" markerUnits="strokeWidth" viewBox="0 0 1 1" markerWidth="1" markerHeight="1" overflow="visible" orient="auto">
   <!-- REF_ARROW_STRAIGHT (-2) -->
   <g transform="scale(0.0092592592)">
    <!-- 1/108 -->
    <path d="M -9 54 L -9 -54 L 117 0 z"/>
   </g>
  </marker>
  <marker id="DefaultArrow3" markerUnits="strokeWidth" viewBox="0 0 1 1" markerWidth="1" markerHeight="1" overflow="visible" orient="auto">
   <!-- REF_ARROW_ANGLED -->
   <g transform="scale(0.0092592592)">
    <path d="M -27 54 L -9 0 L -27 -54 L 135 0 z"/>
   </g>
  </marker>
  <marker id="DefaultArrow4" markerUnits="strokeWidth" viewBox="0 0 1 1" markerWidth="1" markerHeight="1" overflow="visible" orient="auto">
   <!-- REF_ARROW_ROUNDED -->
   <g transform="scale(0.0092592592)">
    <path d="M -9,0 L -9,-45 C -9,-51.708 2.808,-56.580 9,-54 L 117,-9 C 120.916,-7.369 126.000,-4.242 126,0 C 126,4.242 120.916,7.369 117,9 L 9,54 C 2.808,56.580 -9,51.708 -9,45 z"/>
   </g>
  </marker>
  <marker id="DefaultArrow5" markerUnits="strokeWidth" viewBox="0 0 1 1" markerWidth="1" markerHeight="1" overflow="visible" orient="auto">
   <!-- REF_ARROW_SPOT -->
   <g transform="scale(0.0092592592)">
    <path d="M -54, 0 C -54,29.807 -29.807,54 0,54 C 29.807,54 54,29.807 54,0 C 54,-29.807 29.807,-54 0,-54 C -29.807,-54 -54,-29.807 -54,0 z"/>
   </g>
  </marker>
  <marker id="DefaultArrow6" markerUnits="strokeWidth" viewBox="0 0 1 1" markerWidth="1" markerHeight="1" overflow="visible" orient="auto">
   <!-- REF_ARROW_DIAMOND -->
   <g transform="scale(0.0092592592)">
    <path d="M -63,0 L 0,63 L 63,0 L 0,-63 z"/>
   </g>
  </marker>
  <marker id="DefaultArrow7" markerUnits="strokeWidth" viewBox="0 0 1 1" markerWidth="1" markerHeight="1" overflow="visible" orient="auto">
   <!-- REF_ARROW_FEATHER -->
   <g transform="scale(0.0092592592)">
    <path d="M 18,-54 L 108,-54 L 63,0 L 108,54 L 18, 54 L -36,0 z"/>
   </g>
  </marker>
  <marker id="DefaultArrow8" markerUnits="strokeWidth" viewBox="0 0 1 1" markerWidth="1" markerHeight="1" overflow="visible" orient="auto">
   <!-- REF_ARROW_FEATHER2 -->
   <g transform="scale(0.0092592592)">
    <path d="M -36,0 L 18,-54 L 54,-54 L 18,-18 L 27,-18 L 63,-54 L 99,-54 L 63,-18 L 72,-18 L 108,-54 L 144,-54 L 90,0 L 144,54 L 108,54 L 72,18 L 63,18 L 99,54 L 63,54 L 27,18 L 18,18 L 54,54 L 18,54 z"/>
   </g>
  </marker>
  <marker id="DefaultArrow9" markerUnits="strokeWidth" viewBox="0 0 1 1" markerWidth="1" markerHeight="1" overflow="visible" orient="auto">
   <!-- REF_ARROW_HOLLOWDIAMOND -->
   <g transform="scale(0.0092592592)">
    <path d="M 0,45 L -45,0 L 0, -45 L 45, 0 z M 0, 63 L-63, 0 L 0, -63 L 63, 0 z"/>
   </g>
  </marker>
  <filter id="StainedFilter">
   <feBlend mode="multiply" in2="BackgroundImage" in="SourceGraphic" result="blend"/>
   <feComposite in="blend" in2="SourceAlpha" operator="in" result="comp"/>
  </filter>
  <filter id="BleachFilter">
   <feBlend mode="screen" in2="BackgroundImage" in="SourceGraphic" result="blend"/>
   <feComposite in="blend" in2="SourceAlpha" operator="in" result="comp"/>
  </filter>
  <filter id="InvertTransparencyBitmapFilter">
   <feComponentTransfer>
    <feFuncR type="gamma" amplitude="1.055" exponent=".416666666" offset="-0.055"/>
    <feFuncG type="gamma" amplitude="1.055" exponent=".416666666" offset="-0.055"/>
    <feFuncB type="gamma" amplitude="1.055" exponent=".416666666" offset="-0.055"/>
   </feComponentTransfer>
   <feComponentTransfer>
    <feFuncR type="linear" slope="-1" intercept="1"/>
    <feFuncG type="linear" slope="-1" intercept="1"/>
    <feFuncB type="linear" slope="-1" intercept="1"/>
    <feFuncA type="linear" slope="1" intercept="0"/>
   </feComponentTransfer>
   <feComponentTransfer>
    <feFuncR type="gamma" amplitude="1" exponent="2.4" offset="0"/>
    <feFuncG type="gamma" amplitude="1" exponent="2.4" offset="0"/>
    <feFuncB type="gamma" amplitude="1" exponent="2.4" offset="0"/>
   </feComponentTransfer>
  </filter>
 </defs>
 <g id="Document" fill="none" stroke="black" font-family="Times New Roman" font-size="16" transform="scale(1 -1)">
  <g id="Spread" transform="translate(0 -108)">
   <g id="Layer 1">
    <path d="M 99.694,104.313 C 99.694,104.313 84.119,104.363 66.557,103.538 C 48.206,102.676 33.444,101.501 33.444,101.501 C 33.444,101.501 33.356,101.038 33.356,101.038 C 33.356,101.038 31.794,100.963 31.794,100.963 C 31.794,100.963 31.643,101.501 31.643,101.501 C 31.643,101.501 28.594,101.351 21.331,100.488 C 14.069,99.626 13.906,98.251 13.444,98.063 C 8.444,96.188 5.631,59.626 5.631,59.626 C 5.631,59.626 3.444,28.376 4.694,19.313 C 5.944,10.251 13.331,6.613 15.206,5.776 C 17.081,4.938 21.144,3.901 33.644,2.863 C 46.144,1.813 100.006,2.126 100.006,2.126 C 100.006,2.126 104.381,2.126 104.381,2.126 C 104.381,2.126 104.381,2.176 104.381,2.176 C 110.407,2.138 158.356,1.926 170.056,2.901 C 182.544,3.951 186.606,4.988 188.481,5.826 C 190.356,6.651 197.744,10.301 198.994,19.351 C 200.244,28.413 198.057,59.651 198.057,59.651 C 198.057,59.651 195.244,96.2 190.244,98.075 C 189.782,98.251 189.619,99.638 182.369,100.488 C 175.106,101.351 172.057,101.513 172.057,101.513 C 172.057,101.513 171.906,100.963 171.906,100.963 C 171.906,100.963 170.344,101.038 170.344,101.038 C 170.344,101.038 170.269,101.513 170.269,101.513 C 170.269,101.513 155.507,102.676 137.169,103.538 C 121.081,104.288 106.657,104.325 104.381,104.313 C 104.381,104.313 104.069,104.313 104.069,104.313 C 104.069,104.313 99.694,104.313 99.694,104.313 L 99.694,104.313 Z" fill="none" stroke="#000000" stroke-width="0.72" stroke-linecap="round" stroke-linejoin="round" marker-start="none" marker-end="none" stroke-miterlimit="79.8403193612775"/>
    <path d="M 64.694,93.601 C 64.694,96.351 64.856,96.501 67.656,96.501 C 67.656,96.501 135.156,96.501 135.156,96.501 C 137.969,96.501 138.131,96.351 138.131,93.601 C 138.131,93.601 138.131,43.788 138.131,43.788 C 138.131,41.038 137.969,40.876 135.156,40.876 C 135.156,40.876 67.656,40.876 67.656,40.876 C 64.856,40.876 64.694,41.038 64.694,43.788 C 64.694,43.788 64.694,93.601 64.694,93.601 L 64.694,93.601 Z" fill="none" stroke="#000000" stroke-width="0.72" stroke-linecap="round" stroke-linejoin="round" marker-start="none" marker-end="none" stroke-miterlimit="79.8403193612775"/>
    <path d="M 70.944,89.088 C 70.944,90.876 70.944,90.876 72.731,90.876 C 72.731,90.876 130.393,90.876 130.393,90.876 C 132.194,90.876 132.194,90.876 132.194,89.088 C 132.194,89.088 132.194,47.363 132.194,47.363 C 132.194,45.563 132.194,45.563 130.393,45.563 C 130.393,45.563 72.731,45.563 72.731,45.563 C 70.944,45.563 70.944,45.563 70.944,47.363 C 70.944,47.363 70.944,89.088 70.944,89.088 L 70.944,89.088 Z" fill="none" stroke="#000000" stroke-width="0.72" stroke-linecap="round" stroke-linejoin="round" marker-start="none" marker-end="none" stroke-miterlimit="79.8403193612775"/>
    <path d="M 101.569,95.601 C 101.569,95.601 101.256,95.601 101.256,95.601 C 98.069,95.588 71.306,95.426 68.881,94.163 C 66.294,92.826 66.606,90.038 66.606,90.038 C 66.606,90.038 66.294,46.413 66.294,46.413 C 66.294,46.413 66.094,43.214 67.231,42.701 C 68.281,42.226 97.369,42.638 101.406,42.701 C 105.456,42.638 134.544,42.226 135.594,42.701 C 136.731,43.214 136.531,46.413 136.531,46.413 C 136.531,46.413 136.219,90.038 136.219,90.038 C 136.219,90.038 136.531,92.826 133.944,94.163 C 131.519,95.426 104.757,95.588 101.569,95.601 L 101.569,95.601 Z" fill="none" stroke="#000000" stroke-width="0.72" stroke-linecap="round" stroke-linejoin="round" marker-start="none" marker-end="none" stroke-miterlimit="79.8403193612775"/>
    <path d="M 100.631,99.626 C 100.631,99.626 100.631,99.613 100.631,99.613 C 93.344,99.563 70.056,99.363 63.756,99.001 C 56.256,98.588 43.019,95.876 41.669,90.988 C 40.319,86.088 42.194,82.438 42.194,82.438 C 42.194,82.438 52.794,51.788 55.631,44.313 C 57.606,39.113 68.644,36.401 72.194,36.501 C 74.069,36.563 92.282,36.339 100.006,36.238 C 100.006,36.238 100.006,36.188 100.006,36.188 C 100.006,36.188 103.444,36.188 103.444,36.188 C 103.444,36.188 103.444,36.238 103.444,36.238 C 111.157,36.339 129.332,36.563 131.219,36.501 C 134.757,36.401 145.781,39.113 147.756,44.313 C 150.594,51.788 161.182,82.438 161.182,82.438 C 161.182,82.438 163.057,86.088 161.694,90.988 C 160.344,95.876 147.131,98.588 139.644,99.001 C 133.344,99.351 110.094,99.563 102.819,99.613 C 102.819,99.613 100.631,99.626 100.631,99.626 L 100.631,99.626 Z" fill="none" stroke="#000000" stroke-width="0.72" stroke-linecap="round" stroke-linejoin="round" marker-start="none" marker-end="none" stroke-miterlimit="79.8403193612775"/>
    <path d="M 147.744,44.001 C 145.231,38.276 139.294,34.875 132.631,34.113 C 121.194,32.788 108.219,33.038 103.007,33.088 C 101.944,33.088 101.369,33.088 100.231,33.088 C 94.957,33.038 82.081,32.801 70.731,34.113 C 64.069,34.875 58.131,38.276 55.631,44.001" fill="none" stroke="#000000" stroke-width="0.72" stroke-linecap="round" stroke-linejoin="round" stroke-miterlimit="79.8403193612775"/>
    <path d="M 56.057,76.363 C 56.557,77.026 57.556,77.151 57.994,76.801 C 58.419,76.463 58.644,75.763 58.231,75.101 C 57.794,74.388 56.694,74.063 56.194,74.401 C 55.669,74.751 55.519,75.651 56.057,76.363 L 56.057,76.363 Z" fill="none" stroke="#000000" stroke-width="0.96" stroke-linecap="round" stroke-linejoin="round" marker-start="none" marker-end="none" stroke-miterlimit="79.8403193612775"/>
    <path d="M 49.631,92.626 C 50.769,93.938 52.131,94.651 52.682,94.201 C 53.231,93.763 52.756,92.326 51.619,91.013 C 50.494,89.701 49.132,88.988 48.581,89.438 C 48.019,89.876 48.494,91.313 49.631,92.626 L 49.631,92.626 Z" fill="none" stroke="#000000" stroke-width="0.72" stroke-linecap="round" stroke-linejoin="round" marker-start="none" marker-end="none" stroke-miterlimit="79.8403193612775"/>
    <path d="M 54.132,92.613 C 55.294,93.926 56.706,94.626 57.268,94.188 C 57.831,93.751 57.344,92.326 56.182,91.026 C 55.019,89.713 53.619,89.013 53.057,89.451 C 52.481,89.888 52.969,91.313 54.132,92.613 L 54.132,92.613 Z" fill="none" stroke="#000000" stroke-width="0.72" stroke-linecap="round" stroke-linejoin="round" marker-start="none" marker-end="none" stroke-miterlimit="79.8403193612775"/>
    <path d="M 58.507,92.613 C 59.669,93.926 61.081,94.626 61.643,94.188 C 62.206,93.751 61.719,92.326 60.557,91.026 C 59.394,89.713 57.994,89.013 57.432,89.451 C 56.856,89.888 57.344,91.313 58.507,92.613 L 58.507,92.613 Z" fill="none" stroke="#000000" stroke-width="0.72" stroke-linecap="round" stroke-linejoin="round" marker-start="none" marker-end="none" stroke-miterlimit="79.8403193612775"/>
    <path d="M 168.781,90.426 C 171.269,89.838 173.131,87.613 173.131,84.938 C 173.131,81.838 170.606,79.313 167.506,79.313 C 166.669,79.313 165.881,79.501 165.182,79.825" fill="none" stroke="#000000" stroke-width="0.72" stroke-linecap="round" stroke-linejoin="round" stroke-miterlimit="79.8403193612775"/>
    <path d="M 168.781,90.426 C 171.269,89.838 172.394,88.438 172.394,85.776 C 171.832,82.813 170.781,81.663 167.706,81.188 C 166.881,81.188 166.331,80.976 165.631,81.301" fill="none" stroke="#000000" stroke-width="0.72" stroke-linecap="round" stroke-linejoin="round" stroke-miterlimit="79.8403193612775"/>
    <path d="M 168.444,84.788 C 168.444,85.226 168.794,85.563 169.219,85.563 C 169.656,85.563 170.006,85.226 170.006,84.788 C 170.006,84.351 169.656,84.001 169.219,84.001 C 168.794,84.001 168.444,84.351 168.444,84.788 L 168.444,84.788 Z" fill="none" stroke="#000000" stroke-width="0.72" stroke-linecap="round" stroke-linejoin="round" marker-start="none" marker-end="none" stroke-miterlimit="79.8403193612775"/>
    <path d="M 14.069,63.688 C 13.331,75.876 22.706,77.963 26.256,78.063 C 29.794,78.176 36.256,78.176 39.694,67.438 C 44.057,53.826 30.206,36.501 21.256,36.501" fill="none" stroke="#000000" stroke-width="0.72" stroke-linecap="round" stroke-linejoin="round" stroke-miterlimit="79.8403193612775"/>
    <path d="M 15.156,65.413 C 15.156,71.451 20.056,76.351 26.094,76.351 C 32.131,76.351 37.031,71.451 37.031,65.413 C 37.031,59.376 32.131,54.476 26.094,54.476 C 20.056,54.476 15.156,59.376 15.156,65.413 L 15.156,65.413 Z" fill="none" stroke="#000000" stroke-width="0.72" stroke-linecap="round" stroke-linejoin="round" marker-start="none" marker-end="none" stroke-miterlimit="79.8403193612775"/>
    <path d="M 15.569,62.438 C 15.569,62.438 21.356,62.438 21.356,62.438 C 21.356,62.438 21.356,61.501 21.356,61.501 C 21.356,61.501 25.631,65.563 25.631,65.563 C 25.631,65.563 21.356,69.626 21.356,69.626 C 21.356,69.626 21.356,68.688 21.356,68.688 C 21.356,68.688 15.656,68.688 15.656,68.688 C 15.331,67.663 15.156,66.551 15.156,65.413 C 15.156,64.388 15.307,63.388 15.569,62.438 L 15.569,62.438 Z" fill="none" stroke="#000000" stroke-width="0.72" stroke-linecap="round" stroke-linejoin="round" marker-start="none" marker-end="none" stroke-miterlimit="79.8403193612775"/>
    <path d="M 36.632,62.438 C 36.632,62.438 30.831,62.438 30.831,62.438 C 30.831,62.438 30.831,61.501 30.831,61.501 C 30.831,61.501 26.569,65.563 26.569,65.563 C 26.569,65.563 30.831,69.626 30.831,69.626 C 30.831,69.626 30.831,68.688 30.831,68.688 C 30.831,68.688 36.531,68.688 36.531,68.688 C 36.856,67.663 37.031,66.551 37.031,65.413 C 37.031,64.388 36.894,63.388 36.632,62.438 L 36.632,62.438 Z" fill="none" stroke="#000000" stroke-width="0.72" stroke-linecap="round" stroke-linejoin="round" marker-start="none" marker-end="none" stroke-miterlimit="79.8403193612775"/>
    <path d="M 23.131,75.938 C 23.131,75.938 23.131,70.151 23.131,70.151 C 23.131,70.151 22.194,70.151 22.194,70.151 C 22.194,70.151 26.256,65.876 26.256,65.876 C 26.256,65.876 30.319,70.151 30.319,70.151 C 30.319,70.151 29.381,70.151 29.381,70.151 C 29.381,70.151 29.381,75.851 29.381,75.851 C 28.344,76.176 27.244,76.351 26.094,76.351 C 25.069,76.351 24.069,76.213 23.131,75.938 L 23.131,75.938 Z" fill="none" stroke="#000000" stroke-width="0.72" stroke-linecap="round" stroke-linejoin="round" marker-start="none" marker-end="none" stroke-miterlimit="79.8403193612775"/>
    <path d="M 23.131,54.888 C 23.131,54.888 23.131,60.676 23.131,60.676 C 23.131,60.676 22.194,60.676 22.194,60.676 C 22.194,60.676 26.256,64.938 26.256,64.938 C 26.256,64.938 30.319,60.676 30.319,60.676 C 30.319,60.676 29.381,60.676 29.381,60.676 C 29.381,60.676 29.381,54.976 29.381,54.976 C 28.344,54.651 27.244,54.476 26.094,54.476 C 25.069,54.476 24.069,54.613 23.131,54.888 L 23.131,54.888 Z" fill="none" stroke="#000000" stroke-width="0.72" stroke-linecap="round" stroke-linejoin="round" marker-start="none" marker-end="none" stroke-miterlimit="79.8403193612775"/>
    <path d="M 176.557,67.901 C 174.894,66.638 173.044,65.151 171.018,63.426" fill="none" stroke="#000000" stroke-width="0.96" stroke-linecap="round" stroke-linejoin="round" stroke-miterlimit="79.8403193612775"/>
    <path d="M 163.194,54.976 C 156.182,44.763 157.194,35.251 157.194,35.251 C 157.194,35.251 173.131,36.301 185.319,51.813 C 201.544,72.488 190.006,75.251 190.006,75.251 C 190.006,75.251 188.806,75.213 186.119,73.951" fill="none" stroke="#000000" stroke-width="0.72" stroke-linecap="round" stroke-linejoin="round" stroke-miterlimit="79.8403193612775"/>
    <path d="M 161.881,58.538 C 161.881,61.725 164.469,64.313 167.656,64.313 C 170.856,64.313 173.444,61.725 173.444,58.538 C 173.444,55.351 170.856,52.751 167.656,52.751 C 164.469,52.751 161.881,55.351 161.881,58.538 L 161.881,58.538 Z" fill="none" stroke="#000000" stroke-width="0.72" stroke-linecap="round" stroke-linejoin="round" marker-start="none" marker-end="none" stroke-miterlimit="79.8403193612775"/>
    <path d="M 163.194,58.676 C 163.194,61.1 165.156,63.051 167.569,63.051 C 169.981,63.051 171.944,61.1 171.944,58.676 C 171.944,56.263 169.981,54.301 167.569,54.301 C 165.156,54.301 163.194,56.263 163.194,58.676 L 163.194,58.676 Z" fill="none" stroke="#000000" stroke-width="0.72" stroke-linecap="round" stroke-linejoin="round" marker-start="none" marker-end="none" stroke-miterlimit="79.8403193612775"/>
    <path d="M 176.256,69.476 C 176.256,72.663 178.844,75.251 182.031,75.251 C 185.231,75.251 187.819,72.663 187.819,69.476 C 187.819,66.288 185.231,63.688 182.031,63.688 C 178.844,63.688 176.256,66.288 176.256,69.476 L 176.256,69.476 Z" fill="none" stroke="#000000" stroke-width="0.72" stroke-linecap="round" stroke-linejoin="round" marker-start="none" marker-end="none" stroke-miterlimit="79.8403193612775"/>
    <path d="M 177.531,69.476 C 177.531,71.888 179.494,73.851 181.906,73.851 C 184.319,73.851 186.281,71.888 186.281,69.476 C 186.281,67.051 184.319,65.101 181.906,65.101 C 179.494,65.101 177.531,67.051 177.531,69.476 L 177.531,69.476 Z" fill="none" stroke="#000000" stroke-width="0.72" stroke-linecap="round" stroke-linejoin="round" marker-start="none" marker-end="none" stroke-miterlimit="79.8403193612775"/>
    <path d="M 26.569,29.626 C 26.569,30.151 26.981,30.563 27.506,30.563 C 28.019,30.563 28.444,30.151 28.444,29.626 C 28.444,29.113 28.019,28.688 27.506,28.688 C 26.981,28.688 26.569,29.113 26.569,29.626 L 26.569,29.626 Z" fill="none" stroke="#000000" stroke-width="0.48" stroke-linecap="round" stroke-linejoin="round" marker-start="none" marker-end="none" stroke-miterlimit="79.8403193612775"/>
    <path d="M 29.694,29.626 C 29.694,30.151 30.106,30.563 30.631,30.563 C 31.144,30.563 31.569,30.151 31.569,29.626 C 31.569,29.113 31.144,28.688 30.631,28.688 C 30.106,28.688 29.694,29.113 29.694,29.626 L 29.694,29.626 Z" fill="none" stroke="#000000" stroke-width="0.48" stroke-linecap="round" stroke-linejoin="round" marker-start="none" marker-end="none" stroke-miterlimit="79.8403193612775"/>
    <path d="M 26.569,32.751 C 26.569,33.276 26.981,33.688 27.506,33.688 C 28.019,33.688 28.444,33.276 28.444,32.751 C 28.444,32.238 28.019,31.813 27.506,31.813 C 26.981,31.813 26.569,32.238 26.569,32.751 L 26.569,32.751 Z" fill="none" stroke="#000000" stroke-width="0.48" stroke-linecap="round" stroke-linejoin="round" marker-start="none" marker-end="none" stroke-miterlimit="79.8403193612775"/>
    <path d="M 29.694,32.751 C 29.694,33.276 30.106,33.688 30.631,33.688 C 31.144,33.688 31.569,33.276 31.569,32.751 C 31.569,32.238 31.144,31.813 30.631,31.813 C 30.106,31.813 29.694,32.238 29.694,32.751 L 29.694,32.751 Z" fill="none" stroke="#000000" stroke-width="0.48" stroke-linecap="round" stroke-linejoin="round" marker-start="none" marker-end="none" stroke-miterlimit="79.8403193612775"/>
    <path d="M 26.569,26.501 C 26.569,27.026 26.981,27.438 27.506,27.438 C 28.019,27.438 28.444,27.026 28.444,26.501 C 28.444,25.988 28.019,25.575 27.506,25.563 C 26.981,25.563 26.569,25.988 26.569,26.501 L 26.569,26.501 Z" fill="none" stroke="#000000" stroke-width="0.48" stroke-linecap="round" stroke-linejoin="round" marker-start="none" marker-end="none" stroke-miterlimit="79.8403193612775"/>
    <path d="M 29.694,26.513 C 29.694,27.026 30.106,27.438 30.631,27.438 C 31.144,27.438 31.569,27.026 31.569,26.501 C 31.569,25.988 31.144,25.563 30.631,25.563 C 30.106,25.575 29.694,25.988 29.694,26.513 L 29.694,26.513 Z" fill="none" stroke="#000000" stroke-width="0.48" stroke-linecap="round" stroke-linejoin="round" marker-start="none" marker-end="none" stroke-miterlimit="79.8403193612775"/>
    <path d="M 26.569,23.376 C 26.569,23.901 26.981,24.313 27.506,24.313 C 28.019,24.313 28.444,23.901 28.444,23.376 C 28.444,22.863 28.019,22.438 27.506,22.438 C 26.981,22.438 26.569,22.863 26.569,23.376 L 26.569,23.376 Z" fill="none" stroke="#000000" stroke-width="0.48" stroke-linecap="round" stroke-linejoin="round" marker-start="none" marker-end="none" stroke-miterlimit="79.8403193612775"/>
    <path d="M 29.694,23.376 C 29.694,23.901 30.106,24.313 30.631,24.313 C 31.144,24.313 31.569,23.901 31.569,23.376 C 31.569,22.863 31.144,22.438 30.631,22.438 C 30.106,22.438 29.694,22.863 29.694,23.376 L 29.694,23.376 Z" fill="none" stroke="#000000" stroke-width="0.48" stroke-linecap="round" stroke-linejoin="round" marker-start="none" marker-end="none" stroke-miterlimit="79.8403193612775"/>
    <path d="M 26.569,20.251 C 26.569,20.776 26.981,21.188 27.506,21.188 C 28.019,21.188 28.444,20.776 28.444,20.251 C 28.444,19.738 28.019,19.313 27.506,19.313 C 26.981,19.313 26.569,19.738 26.569,20.251 L 26.569,20.251 Z" fill="none" stroke="#000000" stroke-width="0.48" stroke-linecap="round" stroke-linejoin="round" marker-start="none" marker-end="none" stroke-miterlimit="79.8403193612775"/>
    <path d="M 29.694,20.251 C 29.694,20.776 30.106,21.188 30.631,21.188 C 31.144,21.188 31.569,20.776 31.569,20.251 C 31.569,19.738 31.144,19.313 30.631,19.313 C 30.106,19.313 29.694,19.738 29.694,20.251 L 29.694,20.251 Z" fill="none" stroke="#000000" stroke-width="0.48" stroke-linecap="round" stroke-linejoin="round" marker-start="none" marker-end="none" stroke-miterlimit="79.8403193612775"/>
    <path d="M 32.819,29.626 C 32.819,30.151 33.231,30.563 33.756,30.563 C 34.269,30.563 34.694,30.151 34.694,29.626 C 34.694,29.113 34.269,28.688 33.756,28.688 C 33.231,28.688 32.819,29.113 32.819,29.626 L 32.819,29.626 Z" fill="none" stroke="#000000" stroke-width="0.48" stroke-linecap="round" stroke-linejoin="round" marker-start="none" marker-end="none" stroke-miterlimit="79.8403193612775"/>
    <path d="M 35.944,29.626 C 35.944,30.151 36.356,30.563 36.881,30.563 C 37.394,30.563 37.819,30.151 37.819,29.626 C 37.819,29.113 37.394,28.688 36.881,28.688 C 36.356,28.688 35.944,29.113 35.944,29.626 L 35.944,29.626 Z" fill="none" stroke="#000000" stroke-width="0.48" stroke-linecap="round" stroke-linejoin="round" marker-start="none" marker-end="none" stroke-miterlimit="79.8403193612775"/>
    <path d="M 32.819,32.751 C 32.819,33.276 33.231,33.688 33.756,33.688 C 34.269,33.688 34.694,33.276 34.694,32.751 C 34.694,32.238 34.269,31.813 33.756,31.813 C 33.231,31.813 32.819,32.238 32.819,32.751 L 32.819,32.751 Z" fill="none" stroke="#000000" stroke-width="0.48" stroke-linecap="round" stroke-linejoin="round" marker-start="none" marker-end="none" stroke-miterlimit="79.8403193612775"/>
    <path d="M 35.944,32.751 C 35.944,33.276 36.356,33.688 36.881,33.688 C 37.394,33.688 37.819,33.276 37.819,32.751 C 37.819,32.238 37.394,31.813 36.881,31.813 C 36.356,31.813 35.944,32.238 35.944,32.751 L 35.944,32.751 Z" fill="none" stroke="#000000" stroke-width="0.48" stroke-linecap="round" stroke-linejoin="round" marker-start="none" marker-end="none" stroke-miterlimit="79.8403193612775"/>
    <path d="M 32.819,26.501 C 32.819,27.026 33.231,27.438 33.756,27.438 C 34.269,27.438 34.694,27.026 34.694,26.513 C 34.694,25.988 34.269,25.575 33.756,25.563 C 33.231,25.563 32.819,25.988 32.819,26.501 L 32.819,26.501 Z" fill="none" stroke="#000000" stroke-width="0.48" stroke-linecap="round" stroke-linejoin="round" marker-start="none" marker-end="none" stroke-miterlimit="79.8403193612775"/>
    <path d="M 35.944,26.513 C 35.944,27.026 36.356,27.438 36.881,27.438 C 37.394,27.438 37.819,27.026 37.819,26.513 C 37.819,25.988 37.394,25.563 36.881,25.563 C 36.356,25.575 35.944,25.988 35.944,26.513 L 35.944,26.513 Z" fill="none" stroke="#000000" stroke-width="0.48" stroke-linecap="round" stroke-linejoin="round" marker-start="none" marker-end="none" stroke-miterlimit="79.8403193612775"/>
    <path d="M 32.819,23.376 C 32.819,23.901 33.231,24.313 33.756,24.313 C 34.269,24.313 34.694,23.901 34.694,23.376 C 34.694,22.863 34.269,22.438 33.756,22.438 C 33.231,22.438 32.819,22.863 32.819,23.376 L 32.819,23.376 Z" fill="none" stroke="#000000" stroke-width="0.48" stroke-linecap="round" stroke-linejoin="round" marker-start="none" marker-end="none" stroke-miterlimit="79.8403193612775"/>
    <path d="M 35.944,23.376 C 35.944,23.901 36.356,24.313 36.881,24.313 C 37.394,24.313 37.819,23.901 37.819,23.376 C 37.819,22.863 37.394,22.438 36.881,22.438 C 36.356,22.438 35.944,22.863 35.944,23.376 L 35.944,23.376 Z" fill="none" stroke="#000000" stroke-width="0.48" stroke-linecap="round" stroke-linejoin="round" marker-start="none" marker-end="none" stroke-miterlimit="79.8403193612775"/>
    <path d="M 32.819,20.251 C 32.819,20.776 33.231,21.188 33.756,21.188 C 34.269,21.188 34.694,20.776 34.694,20.251 C 34.694,19.738 34.269,19.313 33.756,19.313 C 33.231,19.313 32.819,19.738 32.819,20.251 L 32.819,20.251 Z" fill="none" stroke="#000000" stroke-width="0.48" stroke-linecap="round" stroke-linejoin="round" marker-start="none" marker-end="none" stroke-miterlimit="79.8403193612775"/>
    <path d="M 35.944,20.251 C 35.944,20.776 36.356,21.188 36.881,21.188 C 37.394,21.188 37.819,20.776 37.819,20.251 C 37.819,19.738 37.394,19.313 36.881,19.313 C 36.356,19.313 35.944,19.738 35.944,20.251 L 35.944,20.251 Z" fill="none" stroke="#000000" stroke-width="0.48" stroke-linecap="round" stroke-linejoin="round" marker-start="none" marker-end="none" stroke-miterlimit="79.8403193612775"/>
    <path d="M 39.069,29.626 C 39.069,30.151 39.481,30.563 40.006,30.563 C 40.519,30.563 40.944,30.151 40.944,29.626 C 40.944,29.113 40.519,28.688 40.006,28.688 C 39.481,28.688 39.069,29.113 39.069,29.626 L 39.069,29.626 Z" fill="none" stroke="#000000" stroke-width="0.48" stroke-linecap="round" stroke-linejoin="round" marker-start="none" marker-end="none" stroke-miterlimit="79.8403193612775"/>
    <path d="M 42.194,29.626 C 42.194,30.151 42.606,30.563 43.131,30.563 C 43.644,30.563 44.069,30.151 44.069,29.626 C 44.069,29.113 43.644,28.688 43.131,28.688 C 42.606,28.688 42.194,29.113 42.194,29.626 L 42.194,29.626 Z" fill="none" stroke="#000000" stroke-width="0.48" stroke-linecap="round" stroke-linejoin="round" marker-start="none" marker-end="none" stroke-miterlimit="79.8403193612775"/>
    <path d="M 39.069,32.751 C 39.069,33.276 39.481,33.688 40.006,33.688 C 40.519,33.688 40.944,33.276 40.944,32.751 C 40.944,32.238 40.519,31.813 40.006,31.813 C 39.481,31.813 39.069,32.238 39.069,32.751 L 39.069,32.751 Z" fill="none" stroke="#000000" stroke-width="0.48" stroke-linecap="round" stroke-linejoin="round" marker-start="none" marker-end="none" stroke-miterlimit="79.8403193612775"/>
    <path d="M 42.194,32.751 C 42.194,33.276 42.606,33.688 43.131,33.688 C 43.644,33.688 44.069,33.276 44.069,32.751 C 44.069,32.238 43.644,31.813 43.131,31.813 C 42.606,31.813 42.194,32.238 42.194,32.751 L 42.194,32.751 Z" fill="none" stroke="#000000" stroke-width="0.48" stroke-linecap="round" stroke-linejoin="round" marker-start="none" marker-end="none" stroke-miterlimit="79.8403193612775"/>
    <path d="M 39.069,26.501 C 39.069,27.026 39.481,27.438 40.006,27.438 C 40.519,27.438 40.944,27.026 40.944,26.513 C 40.944,25.988 40.519,25.563 40.006,25.563 C 39.481,25.575 39.069,25.988 39.069,26.501 L 39.069,26.501 Z" fill="none" stroke="#000000" stroke-width="0.48" stroke-linecap="round" stroke-linejoin="round" marker-start="none" marker-end="none" stroke-miterlimit="79.8403193612775"/>
    <path d="M 42.194,26.513 C 42.194,27.026 42.606,27.438 43.131,27.438 C 43.644,27.438 44.069,27.026 44.069,26.513 C 44.069,25.988 43.644,25.563 43.131,25.575 C 42.606,25.575 42.194,25.988 42.194,26.513 L 42.194,26.513 Z" fill="none" stroke="#000000" stroke-width="0.48" stroke-linecap="round" stroke-linejoin="round" marker-start="none" marker-end="none" stroke-miterlimit="79.8403193612775"/>
    <path d="M 39.069,23.376 C 39.069,23.901 39.481,24.313 40.006,24.313 C 40.519,24.313 40.944,23.901 40.944,23.376 C 40.944,22.863 40.519,22.438 40.006,22.438 C 39.481,22.438 39.069,22.863 39.069,23.376 L 39.069,23.376 Z" fill="none" stroke="#000000" stroke-width="0.48" stroke-linecap="round" stroke-linejoin="round" marker-start="none" marker-end="none" stroke-miterlimit="79.8403193612775"/>
    <path d="M 42.194,23.376 C 42.194,23.901 42.606,24.313 43.131,24.313 C 43.644,24.313 44.069,23.901 44.069,23.376 C 44.069,22.863 43.644,22.438 43.131,22.438 C 42.606,22.438 42.194,22.863 42.194,23.376 L 42.194,23.376 Z" fill="none" stroke="#000000" stroke-width="0.48" stroke-linecap="round" stroke-linejoin="round" marker-start="none" marker-end="none" stroke-miterlimit="79.8403193612775"/>
    <path d="M 39.069,20.251 C 39.069,20.776 39.481,21.188 40.006,21.188 C 40.519,21.188 40.944,20.776 40.944,20.251 C 40.944,19.738 40.519,19.313 40.006,19.313 C 39.481,19.313 39.069,19.738 39.069,20.251 L 39.069,20.251 Z" fill="none" stroke="#000000" stroke-width="0.48" stroke-linecap="round" stroke-linejoin="round" marker-start="none" marker-end="none" stroke-miterlimit="79.8403193612775"/>
    <path d="M 42.194,20.251 C 42.194,20.776 42.606,21.188 43.131,21.188 C 43.644,21.188 44.069,20.776 44.069,20.251 C 44.069,19.738 43.644,19.313 43.131,19.313 C 42.606,19.313 42.194,19.738 42.194,20.251 L 42.194,20.251 Z" fill="none" stroke="#000000" stroke-width="0.48" stroke-linecap="round" stroke-linejoin="round" marker-start="none" marker-end="none" stroke-miterlimit="79.8403193612775"/>
    <path d="M 172.119,100.876 C 172.119,100.876 172.044,99.588 172.044,99.588 C 172.044,99.588 153.057,44.001 153.057,44.001 C 153.057,44.001 148.518,32.751 138.369,30.563 C 128.206,28.376 102.432,28.688 102.432,28.688 C 101.256,28.688 75.469,28.388 65.319,30.563 C 55.156,32.751 50.631,44.001 50.631,44.001 C 50.631,44.001 31.643,99.588 31.643,99.588 C 31.643,99.588 31.569,100.876 31.569,100.876" fill="none" stroke="#000000" stroke-width="0.72" stroke-linecap="round" stroke-linejoin="round" stroke-miterlimit="79.8403193612775"/>
    <path d="M 170.356,100.463 C 170.356,100.463 170.582,99.188 170.582,99.188 C 170.582,99.188 151.969,45.463 151.969,45.463 C 151.969,45.463 148.094,34.325 138.044,32.151 C 127.981,29.988 102.469,30.301 102.469,30.301 C 101.219,30.263 75.694,29.95 65.631,32.113 C 55.582,34.288 51.719,45.426 51.719,45.426 C 51.719,45.426 33.094,99.163 33.094,99.163 C 33.094,99.163 33.319,100.438 33.319,100.438" fill="none" stroke="#000000" stroke-width="0.72" stroke-linecap="round" stroke-linejoin="round" stroke-miterlimit="79.8403193612775"/>
    <path d="M 155.444,90.876 C 155.444,90.876 154.006,86.488 154.006,86.488 C 154.006,86.488 154.719,86.488 154.719,86.488 C 154.719,86.488 156.169,90.726 156.169,90.726 C 156.219,90.913 156.381,91.051 156.569,91.051 C 156.757,91.051 156.906,90.913 156.969,90.726 C 156.969,90.726 158.194,87.138 158.194,87.138 C 158.194,87.138 156.269,87.138 156.269,87.138 C 156.269,87.138 156.269,86.488 156.269,86.488 C 156.269,86.488 159.132,86.488 159.132,86.488 C 159.132,86.488 157.682,90.876 157.682,90.876 C 157.544,91.351 157.094,91.713 156.569,91.713 C 156.032,91.713 155.582,91.351 155.444,90.876 L 155.444,90.876 Z" stroke="none" fill-rule="nonzero" fill="#000000" marker-start="none" marker-end="none"/>
    <path d="M 156.294,88.151 C 156.294,88.151 156.544,88.901 156.544,88.901 C 156.544,88.901 156.807,88.151 156.807,88.151 C 156.807,88.151 156.294,88.151 156.294,88.151 L 156.294,88.151 Z M 156.194,90.301 C 156.194,90.301 154.894,86.488 154.894,86.488 C 154.894,86.488 155.731,86.488 155.731,86.488 C 155.731,86.488 156.269,88.063 156.269,88.063 C 156.269,88.063 156.269,87.375 156.269,87.375 C 156.269,87.375 157.919,87.375 157.919,87.375 C 157.919,87.375 156.944,90.301 156.944,90.301 C 156.894,90.463 156.744,90.938 156.569,90.938 C 156.394,90.938 156.244,90.463 156.194,90.301 L 156.194,90.301 Z" stroke="none" fill-rule="nonzero" fill="#000000" marker-start="none" marker-end="none"/>
    <path d="M 151.619,90.876 C 151.619,90.876 154.119,90.876 154.119,90.876 C 154.119,90.876 154.119,91.588 154.119,91.588 C 154.119,91.588 151.557,91.588 151.557,91.588 C 150.869,91.588 150.307,91.038 150.307,90.338 C 150.307,90.338 150.307,87.726 150.307,87.726 C 150.307,87.038 150.869,86.488 151.557,86.488 C 151.557,86.488 154.119,86.488 154.119,86.488 C 154.119,86.488 154.119,89.813 154.119,89.813 C 154.119,89.813 152.094,89.813 152.094,89.813 C 152.094,89.813 152.094,89.151 152.094,89.151 C 152.094,89.151 153.406,89.151 153.406,89.151 C 153.406,89.151 153.406,87.201 153.406,87.201 C 153.406,87.201 151.619,87.201 151.619,87.201 C 151.294,87.201 151.018,87.463 151.018,87.788 C 151.018,87.788 151.018,90.288 151.018,90.288 C 151.018,90.613 151.294,90.876 151.619,90.876 L 151.619,90.876 Z" stroke="none" fill-rule="nonzero" fill="#000000" marker-start="none" marker-end="none"/>
    <path d="M 152.094,88.976 C 152.094,88.976 152.094,88.263 152.094,88.263 C 152.094,88.263 152.519,88.263 152.519,88.263 C 152.519,88.263 152.506,88.088 152.506,88.088 C 152.506,88.088 152.094,88.088 152.094,88.088 C 151.994,88.088 151.919,88.163 151.919,88.263 C 151.919,88.263 151.919,89.813 151.919,89.813 C 151.919,89.913 151.994,89.988 152.094,89.988 C 152.094,89.988 154.119,89.988 154.119,89.988 C 154.119,89.988 154.119,90.701 154.119,90.701 C 154.119,90.701 151.794,90.701 151.794,90.701 C 151.469,90.701 151.207,90.438 151.207,90.101 C 151.207,90.101 151.207,87.963 151.207,87.963 C 151.207,87.638 151.469,87.375 151.794,87.375 C 151.794,87.375 153.231,87.375 153.231,87.375 C 153.231,87.375 153.231,88.976 153.231,88.976 C 153.231,88.976 152.094,88.976 152.094,88.976 L 152.094,88.976 Z" stroke="none" fill-rule="nonzero" fill="#000000" marker-start="none" marker-end="none"/>
    <path d="M 147.506,90.876 C 147.506,90.876 150.006,90.876 150.006,90.876 C 150.006,90.876 150.006,91.588 150.006,91.588 C 150.006,91.588 147.444,91.588 147.444,91.588 C 146.757,91.588 146.194,91.038 146.194,90.338 C 146.194,90.338 146.194,87.763 146.194,87.763 C 146.194,87.076 146.757,86.513 147.444,86.513 C 147.444,86.513 150.006,86.513 150.006,86.513 C 150.006,86.513 150.006,87.226 150.006,87.226 C 150.006,87.226 147.506,87.226 147.506,87.226 C 147.182,87.226 146.906,87.488 146.906,87.813 C 146.906,87.813 146.906,90.288 146.906,90.288 C 146.906,90.613 147.182,90.876 147.506,90.876 L 147.506,90.876 Z" stroke="none" fill-rule="nonzero" fill="#000000" marker-start="none" marker-end="none"/>
    <path d="M 149.469,89.151 C 149.469,89.151 149.469,89.813 149.469,89.813 C 149.469,89.813 147.807,89.813 147.807,89.813 C 147.807,89.913 147.882,89.988 147.981,89.988 C 147.981,89.988 150.006,89.988 150.006,89.988 C 150.006,89.988 150.006,90.701 150.006,90.701 C 150.006,90.701 147.682,90.701 147.682,90.701 C 147.356,90.701 147.094,90.438 147.094,90.101 C 147.094,90.101 147.094,89.151 147.094,89.151 C 147.094,89.151 149.469,89.151 149.469,89.151 L 149.469,89.151 Z" stroke="none" fill-rule="nonzero" fill="#000000" marker-start="none" marker-end="none"/>
    <path d="M 149.469,88.913 C 149.469,88.913 149.469,88.263 149.469,88.263 C 149.469,88.263 147.807,88.263 147.807,88.263 C 147.807,88.163 147.882,88.088 147.981,88.088 C 147.981,88.088 150.006,88.088 150.006,88.088 C 150.006,88.088 150.006,87.375 150.006,87.375 C 150.006,87.375 147.682,87.375 147.682,87.375 C 147.356,87.375 147.094,87.638 147.094,87.963 C 147.094,87.963 147.094,88.913 147.094,88.913 C 147.094,88.913 149.469,88.913 149.469,88.913 L 149.469,88.913 Z" stroke="none" fill-rule="nonzero" fill="#000000" marker-start="none" marker-end="none"/>
    <path d="M 143.344,88.026 C 143.344,88.026 141.844,88.026 141.844,88.026 C 141.844,88.026 141.844,87.375 141.844,87.375 C 141.844,87.375 144.143,87.375 144.143,87.375 C 144.143,87.375 144.169,87.375 144.169,87.375 C 144.606,87.388 144.944,87.738 144.944,88.176 C 144.944,88.613 144.581,88.976 144.143,88.976 C 144.143,88.976 143.231,88.976 143.231,88.976 C 142.869,89.113 142.556,89.476 142.556,89.901 C 142.556,90.438 143.057,90.876 143.606,90.876 C 143.606,90.876 145.844,90.876 145.844,90.876 C 145.844,90.876 145.844,91.588 145.844,91.588 C 145.844,91.588 143.518,91.588 143.518,91.588 C 142.594,91.588 141.844,90.851 141.844,89.926 C 141.844,89.013 142.656,88.263 143.569,88.263 C 143.569,88.263 143.569,88.276 143.569,88.276 C 143.569,88.276 143.581,88.263 143.581,88.263 C 143.581,88.263 144.106,88.263 144.106,88.263 C 144.182,88.263 144.231,88.213 144.231,88.151 C 144.231,88.075 144.182,88.026 144.106,88.026 C 144.106,88.026 143.344,88.026 143.344,88.026 L 143.344,88.026 Z" stroke="none" fill-rule="nonzero" fill="#000000" marker-start="none" marker-end="none"/>
    <path d="M 144.332,90.051 C 144.332,90.051 145.844,90.051 145.844,90.051 C 145.844,90.051 145.844,90.701 145.844,90.701 C 145.844,90.701 143.544,90.701 143.544,90.701 C 143.544,90.701 143.518,90.701 143.518,90.701 C 143.082,90.688 142.744,90.326 142.744,89.901 C 142.744,89.451 143.106,89.101 143.544,89.101 C 143.544,89.101 144.444,89.101 144.444,89.101 C 144.819,88.963 145.119,88.601 145.119,88.176 C 145.119,87.638 144.619,87.201 144.081,87.201 C 144.081,87.201 141.844,87.201 141.844,87.201 C 141.844,87.201 141.844,86.488 141.844,86.488 C 141.844,86.488 144.169,86.488 144.169,86.488 C 145.094,86.488 145.844,87.226 145.844,88.151 C 145.844,89.063 145.031,89.813 144.106,89.813 C 144.106,89.813 144.106,89.801 144.106,89.801 C 144.106,89.801 144.106,89.813 144.106,89.813 C 144.106,89.813 143.569,89.813 143.569,89.813 C 143.507,89.813 143.456,89.863 143.456,89.926 C 143.456,89.988 143.507,90.051 143.569,90.051 C 143.569,90.051 144.332,90.051 144.332,90.051 L 144.332,90.051 Z" stroke="none" fill-rule="nonzero" fill="#000000" marker-start="none" marker-end="none"/>
    <path d="M 50.206,84.688 C 49.907,84.276 49.619,84.2 49.469,84.113 C 49.319,84.026 49.143,83.988 48.981,83.988 C 48.494,83.988 48.106,84.151 47.844,84.464 C 47.569,84.776 47.432,85.226 47.432,85.801 C 47.432,86.476 47.606,87.051 47.944,87.526 C 48.294,88.013 48.744,88.251 49.319,88.251 C 49.757,88.251 50.106,88.126 50.382,87.876 C 50.656,87.638 50.794,87.251 50.794,86.738 C 50.794,86.738 49.957,86.738 49.957,86.738 C 49.957,86.988 49.907,87.163 49.794,87.263 C 49.682,87.363 49.531,87.413 49.319,87.413 C 48.994,87.413 48.731,87.238 48.544,86.913 C 48.356,86.588 48.269,86.213 48.269,85.801 C 48.269,85.513 48.331,85.276 48.444,85.101 C 48.569,84.913 48.744,84.825 48.981,84.825 C 49.231,84.825 49.431,84.901 49.569,85.038 C 49.706,85.176 49.807,85.351 49.869,85.575 C 49.869,85.575 49.094,85.575 49.094,85.575 C 49.094,85.575 49.219,86.339 49.219,86.339 C 49.219,86.339 50.731,86.339 50.731,86.339 C 50.731,86.339 50.606,85.601 50.606,85.601 C 50.606,85.601 50.507,85.101 50.206,84.688 L 50.206,84.688 Z" stroke="none" fill-rule="nonzero" fill="#000000" marker-start="none" marker-end="none"/>
    <path d="M 53.769,80.338 C 53.469,79.926 53.181,79.85 53.032,79.763 C 52.882,79.676 52.719,79.626 52.544,79.626 C 52.057,79.626 51.682,79.788 51.406,80.101 C 51.132,80.426 50.994,80.863 50.994,81.438 C 50.994,82.126 51.169,82.701 51.506,83.176 C 51.856,83.651 52.319,83.888 52.882,83.888 C 53.319,83.888 53.669,83.763 53.944,83.526 C 54.219,83.276 54.356,82.901 54.356,82.375 C 54.356,82.375 53.518,82.375 53.518,82.375 C 53.518,82.626 53.469,82.801 53.356,82.901 C 53.256,83 53.094,83.051 52.893,83.051 C 52.556,83.051 52.294,82.888 52.106,82.563 C 51.919,82.238 51.832,81.863 51.832,81.438 C 51.832,81.151 51.894,80.926 52.006,80.738 C 52.131,80.563 52.307,80.463 52.544,80.463 C 52.794,80.463 52.994,80.538 53.131,80.676 C 53.269,80.826 53.369,81.001 53.432,81.226 C 53.432,81.226 52.656,81.226 52.656,81.226 C 52.656,81.226 52.781,81.976 52.781,81.976 C 52.781,81.976 54.294,81.976 54.294,81.976 C 54.294,81.976 54.169,81.238 54.169,81.238 C 54.169,81.238 54.069,80.738 53.769,80.338 L 53.769,80.338 Z" stroke="none" fill-rule="nonzero" fill="#000000" marker-start="none" marker-end="none"/>
    <path d="M 53.944,88.138 C 53.944,88.138 54.981,88.138 54.981,88.138 C 54.981,88.138 55.219,85.288 55.219,85.288 C 55.219,85.288 56.381,88.151 56.381,88.151 C 56.381,88.151 57.432,88.138 57.432,88.138 C 57.432,88.138 56.757,84.088 56.757,84.088 C 56.757,84.088 56.018,84.088 56.018,84.088 C 56.018,84.088 56.594,87.226 56.594,87.226 C 56.594,87.226 55.319,84.088 55.319,84.088 C 55.319,84.088 54.719,84.088 54.719,84.088 C 54.719,84.088 54.444,87.226 54.444,87.226 C 54.444,87.226 54.006,84.088 54.006,84.088 C 54.006,84.088 53.269,84.088 53.269,84.088 C 53.269,84.088 53.944,88.138 53.944,88.138 L 53.944,88.138 Z" stroke="none" fill-rule="nonzero" fill="#000000" marker-start="none" marker-end="none"/>
    <path d="M 57.694,88.138 C 57.694,88.138 59.794,88.138 59.794,88.138 C 59.794,88.138 59.656,87.301 59.656,87.301 C 59.656,87.301 58.344,87.301 58.344,87.301 C 58.344,87.301 58.206,86.576 58.206,86.576 C 58.206,86.576 59.394,86.576 59.394,86.576 C 59.394,86.576 59.269,85.788 59.269,85.788 C 59.269,85.788 58.082,85.788 58.082,85.788 C 58.082,85.788 57.932,84.926 57.932,84.926 C 57.932,84.926 59.269,84.926 59.269,84.926 C 59.269,84.926 59.143,84.088 59.143,84.088 C 59.143,84.088 57.019,84.088 57.019,84.088 C 57.019,84.088 57.694,88.138 57.694,88.138 L 57.694,88.138 Z" stroke="none" fill-rule="nonzero" fill="#000000" marker-start="none" marker-end="none"/>
    <path d="M 51.544,85.575 C 51.544,85.575 52.131,87.188 52.131,87.188 C 52.131,87.188 52.268,85.575 52.268,85.575 C 52.268,85.575 51.544,85.575 51.544,85.575 L 51.544,85.575 Z M 51.832,88.151 C 51.832,88.151 50.206,84.088 50.206,84.088 C 50.206,84.088 51.007,84.088 51.007,84.088 C 51.007,84.088 51.294,84.875 51.294,84.875 C 51.294,84.875 52.331,84.875 52.331,84.875 C 52.331,84.875 52.407,84.088 52.407,84.088 C 52.407,84.088 53.169,84.088 53.169,84.088 C 53.169,84.088 52.706,88.151 52.706,88.151 C 52.706,88.151 51.832,88.151 51.832,88.151 L 51.832,88.151 Z" stroke="none" fill-rule="nonzero" fill="#000000" marker-start="none" marker-end="none"/>
    <path d="M 54.819,83.788 C 54.819,83.788 56.919,83.788 56.919,83.788 C 56.919,83.788 56.794,82.95 56.794,82.95 C 56.794,82.95 55.469,82.95 55.469,82.95 C 55.469,82.95 55.331,82.213 55.331,82.213 C 55.331,82.213 56.531,82.213 56.531,82.213 C 56.531,82.213 56.406,81.426 56.406,81.426 C 56.406,81.426 55.206,81.426 55.206,81.426 C 55.206,81.426 55.056,80.563 55.056,80.563 C 55.056,80.563 56.406,80.563 56.406,80.563 C 56.406,80.563 56.269,79.726 56.269,79.726 C 56.269,79.726 54.143,79.726 54.143,79.726 C 54.143,79.726 54.819,83.788 54.819,83.788 L 54.819,83.788 Z" stroke="none" fill-rule="nonzero" fill="#000000" marker-start="none" marker-end="none"/>
    <path d="M 57.682,81.213 C 57.682,81.213 58.269,82.826 58.269,82.826 C 58.269,82.826 58.406,81.213 58.406,81.213 C 58.406,81.213 57.682,81.213 57.682,81.213 L 57.682,81.213 Z M 57.981,83.788 C 57.981,83.788 56.344,79.726 56.344,79.726 C 56.344,79.726 57.144,79.726 57.144,79.726 C 57.144,79.726 57.432,80.526 57.432,80.526 C 57.432,80.526 58.469,80.526 58.469,80.526 C 58.469,80.526 58.544,79.726 58.544,79.726 C 58.544,79.726 59.307,79.726 59.307,79.726 C 59.307,79.726 58.844,83.788 58.844,83.788 C 58.844,83.788 57.981,83.788 57.981,83.788 L 57.981,83.788 Z" stroke="none" fill-rule="nonzero" fill="#000000" marker-start="none" marker-end="none"/>
    <path d="M 60.069,83.788 C 60.069,83.788 59.394,79.726 59.394,79.726 C 59.394,79.726 60.169,79.726 60.169,79.726 C 60.169,79.726 60.432,81.276 60.432,81.276 C 60.432,81.276 60.794,81.276 60.794,81.276 C 60.794,81.276 61.394,79.726 61.394,79.726 C 61.394,79.726 62.282,79.726 62.282,79.726 C 62.282,79.726 61.619,81.438 61.619,81.438 C 61.844,81.563 62.044,81.763 62.182,81.964 C 62.331,82.176 62.407,82.426 62.407,82.701 C 62.407,83.088 62.319,83.363 62.144,83.538 C 61.969,83.7 61.731,83.788 61.419,83.788 C 61.419,83.788 60.069,83.788 60.069,83.788 L 60.069,83.788 Z M 60.544,82.001 C 60.544,82.001 60.719,83 60.719,83 C 60.719,83 61.144,83 61.144,83 C 61.306,83 61.419,82.975 61.506,82.913 C 61.581,82.863 61.619,82.751 61.619,82.576 C 61.619,82.388 61.557,82.238 61.432,82.151 C 61.306,82.051 61.144,82.001 60.944,82.001 C 60.944,82.001 60.544,82.001 60.544,82.001 L 60.544,82.001 Z" stroke="none" fill-rule="nonzero" fill="#000000" marker-start="none" marker-end="none"/>
   </g>
  </g>
 </g>
</svg>